<svg xmlns="http://www.w3.org/2000/svg" viewBox="0 0 140 140">
  <defs>
    <linearGradient id="g" x1="0" y1="0" x2="1" y2="0">
      <stop offset="0" stop-color="#C084FC"/>
      <stop offset="0.4" stop-color="#8B5CF6"/>
      <stop offset="0.7" stop-color="#6366F1"/>
      <stop offset="1" stop-color="#38BDF8"/>
    </linearGradient>
    <filter id="glow" x="-20%" y="-60%" width="140%" height="220%">
      <feGaussianBlur stdDeviation="2.4" result="b"/>
      <feMerge><feMergeNode in="b"/><feMergeNode in="SourceGraphic"/></feMerge>
    </filter>
  </defs>
  <g transform="translate(0,46)" fill="none" stroke="url(#g)" stroke-linecap="round" stroke-linejoin="round" filter="url(#glow)">
    <path d="M0,24.05 L14,23.53 L20,23.48 L31,25.56 L37,26.7 L44,25.05 L51,20.34 L57,17.81 L64,20.99 L70,27.08 L77,30.87 L84,27.56 L91,22.04 L97,20.32 L104,22.1 L110,24.15 L116,24.95 L123,24.57 L130,24.03 L140,23.9" stroke-width="4" opacity="0.4"/>
    <path d="M0,23.92 L13,23.56 L20,24.4 L31,26.77 L37,25.3 L45,18.99 L51,16 L58,20.76 L64,29.69 L71,35.15 L77,30.58 L84,20.56 L90,16.48 L97,19.58 L104,24.79 L111,26.45 L118,25.16 L125,23.87 L133,23.65 L140,23.89" stroke-width="4.5" opacity="0.6"/>
    <path d="M0,24 L14,22.96 L21,23.93 L30,28.33 L35,29.54 L43,23.19 L50,12.54 L54,9.74 L60,15.54 L64,24.94 L69,36.83 L74,41.74 L80,34.86 L86,21.55 L92,13.69 L94,13.33 L100,17.56 L107,24.76 L112,27 L119,26.11 L126,24.22 L133,23.57 L140,23.76" stroke-width="6.5"/>
  </g>
</svg>
